<?xml version="1.0" encoding="UTF-8"?>
<svg id="Layer_2" data-name="Layer 2" xmlns="http://www.w3.org/2000/svg" viewBox="0 0 46.14 21.06">
  <defs>
    <style>
      .cls-1 {
        fill: #282828;
      }
    </style>
  </defs>
  <g id="Layer_1-2" data-name="Layer 1">
    <g>
      <path class="cls-1" d="M31.78,10.46c.35-.18.74-.27,1.13-.27h5.32s1.09-.05,1.68-.84c.59-.63.69-1.43.69-1.43V2.34s.11-.46-.57-1.16c-.67-.7-1.49-.83-1.98-.97s-1.73-.22-2.43-.22-1.77.09-2.42.19c-.65.1-2.31.51-2.48,1.96l.02,2.57h5.07v.73h-7.39c-1.56.06-2.43,1.05-2.61,2.29,0,.01,0,.02.01.03l3.18,3.17c.44.42.64.79.6,1.12-.01.27-.12.56-.19.67-.07.11-1.42,1.52-2.21,2.26.25.27.79.5,1.02.5h1.7s.01-1.83.01-2.43c0-.47.26-1.12.78-1.74.35-.42.74-.69,1.06-.86ZM33.04,3.4c-.6.08-1.11-.43-1.03-1.03.05-.41.38-.74.79-.79.6-.08,1.11.43,1.03,1.03-.05.41-.38.74-.79.79Z"/>
      <path class="cls-1" d="M44.34,5.62s-.02-.01-.02-.02c-.31-.2-.45-.21-.84-.29-.03,0-.05,0-.08,0h-1.59c-.2,0-.36.16-.36.36-.01.61-.03,1.81-.03,2.26,0,.47-.19,1.21-.71,1.83-.36.42-.74.69-1.07.86-.35.18-.74.27-1.14.27h-5.37s-1.08.05-1.68.83c0,0-.01.01-.02.02-.52.55-.66,1.24-.69,1.39,0,.02,0,.04,0,.06v5.52s0,.03,0,.04c-.01.09-.03.52.57,1.14.68.7,1.5.83,1.99.97.5.13,1.75.22,2.45.22s1.78-.09,2.44-.19c.65-.1,2.31-.51,2.5-1.93,0-.02,0-.04,0-.05v-2.19c-.01-.2-.18-.36-.38-.36h-4.38c-.2,0-.36-.16-.36-.36s.16-.36.36-.36h7.07s.02,0,.03,0c1.76-.11,2.55-1.49,2.82-2.54.27-1.05.96-5.64-1.5-7.45ZM38.47,17.65c.51,0,.93.41.93.92s-.42.92-.93.92-.93-.41-.93-.92.42-.92.93-.92Z"/>
      <path class="cls-1" d="M15.12,8.77l1.83.02c.86,0,.93-.32.81-.67-.85-2.36-2.39-4.04-4.73-4.92-.27-.1-.55.08-.57.37l-.15,2.38c-.01.26-.22.46-.48.46h-1.28c-.34,0-.63-.17-.77-.31l-2.59-2.59c-.16-.15-.39-.2-.59-.11-2.07.95-3.5,2.48-4.33,4.64-.13.34.14.69.51.69l5.57.04c.3.01.6.13.81.34l2.62,2.82c.11.11.17.25.17.4l-.24,5.6c0,.44.28.79.7.65,2.47-.86,3.99-2.23,4.74-4.01.11-.25.08-.54-.11-.74l-2.28-2.43c-.17-.18-.27-.42-.27-.68l-.02-1.35c0-.35.28-.63.63-.63ZM13.16,9.94c-.38.31-1.01.2-1.63-.34-.69-.59-.93-1.56-.52-1.95.36-.34,1.21-.17,1.78.42.57.59.91,1.43.37,1.88Z"/>
      <path class="cls-1" d="M28.37,12.5h0c.07-.11.12-.24.12-.37s-.04-.27-.12-.37h0s0,0,0,0c-.04-.05-.08-.1-.14-.14l-2.26-2.32s-.05-.06-.08-.09h0s0,0,0,0c-.17-.14-.41-.2-.65-.11-.25.09-.41.33-.41.59,0,.14.03.26.1.37v.02s.01,0,.01,0c.04.05.09.09.13.14l1.79,1.88s.02.06,0,.08l-2.02,2.06h0c-.1.13-.15.29-.14.46.02.31.27.56.57.59.16.02.31-.02.43-.1,0,0,.02-.01.02-.02h0s0,0,0,0c.05-.04.1-.09.14-.14,0,0,2.32-2.33,2.35-2.36.03-.03.11-.09.15-.15Z"/>
      <path class="cls-1" d="M23.41,8.52h0c.1-.13.15-.29.14-.46-.02-.31-.27-.56-.57-.59-.16-.02-.31.02-.43.1,0,0-.02.01-.02.02h0s0,0,0,0c-.05.04-.1.09-.14.14,0,0-3.71,3.71-3.74,3.73-.03.03-.11.09-.15.15h0c-.07.11-.12.24-.12.37s.04.27.12.37h0s0,0,0,0c.04.05.08.1.14.14l3.69,3.62s.05.06.08.09h0s0,0,0,0c.17.14.41.2.65.11.25-.09.41-.33.41-.59,0-.14-.03-.26-.1-.37v-.02s-.01,0-.01,0c-.04-.05-.09-.09-.13-.14l-3.16-3.21s-.02-.06,0-.08l3.35-3.4Z"/>
      <path class="cls-1" d="M10.06,19.61c-4.84,0-8.77-3.93-8.77-8.77S5.22,2.07,10.06,2.07c4.51,0,8.23,3.42,8.72,7.8l1.11-1.15c-.97-4.53-5.01-7.94-9.83-7.94C4.51.78,0,5.29,0,10.84s4.51,10.06,10.06,10.06c4.15,0,7.73-2.53,9.26-6.13l-1.01-.94c-1.22,3.37-4.46,5.79-8.25,5.79Z"/>
    </g>
  </g>
</svg>